<?xml version="1.0" encoding="UTF-8" standalone="no"?>
<svg
   xmlns:dc="http://purl.org/dc/elements/1.1/"
   xmlns:cc="http://creativecommons.org/ns#"
   xmlns:rdf="http://www.w3.org/1999/02/22-rdf-syntax-ns#"
   xmlns:svg="http://www.w3.org/2000/svg"
   xmlns="http://www.w3.org/2000/svg"
   xmlns:sodipodi="http://sodipodi.sourceforge.net/DTD/sodipodi-0.dtd"
   xmlns:inkscape="http://www.inkscape.org/namespaces/inkscape"
   version="1.1"
   id="Layer_1"
   x="0px"
   y="0px"
   viewBox="0 0 512 512"
   style="enable-background:new 0 0 512 512;"
   xml:space="preserve"
   sodipodi:docname="082-padlock.svg"
   inkscape:version="1.0.2 (e86c870, 2021-01-15)"><metadata
   id="metadata5609"><rdf:RDF><cc:Work
       rdf:about=""><dc:format>image/svg+xml</dc:format><dc:type
         rdf:resource="http://purl.org/dc/dcmitype/StillImage" /><dc:title></dc:title></cc:Work></rdf:RDF></metadata><defs
   id="defs5607" /><sodipodi:namedview
   pagecolor="#ffffff"
   bordercolor="#111d4a"
   borderopacity="1"
   objecttolerance="10"
   gridtolerance="10"
   guidetolerance="10"
   inkscape:pageopacity="0"
   inkscape:pageshadow="2"
   inkscape:window-width="2560"
   inkscape:window-height="1415"
   id="namedview5605"
   showgrid="false"
   inkscape:zoom="1.3222656"
   inkscape:cx="257.51256"
   inkscape:cy="256"
   inkscape:window-x="0"
   inkscape:window-y="0"
   inkscape:window-maximized="1"
   inkscape:current-layer="Layer_1" />
<g
   id="g5566">
	<g
   id="g5564">
		<path
   d="M256.001,276.673c-28.017,0-50.81,22.793-50.81,50.81c0,13.895,5.775,27.33,15.858,36.891v45.875    c0,19.273,15.68,34.953,34.953,34.953s34.953-15.68,34.953-34.953v-45.875c10.078-9.555,15.857-22.993,15.857-36.891    C306.81,299.466,284.016,276.673,256.001,276.673z M273.979,346.558c-4.851,4.571-7.633,10.96-7.633,17.53v46.161    c0,5.705-4.64,10.345-10.345,10.345c-5.704,0-10.345-4.64-10.345-10.345v-46.161c0-6.569-2.782-12.957-7.63-17.527    c-5.307-5.003-8.229-11.778-8.229-19.078c0-14.447,11.755-26.202,26.202-26.202c14.447,0,26.202,11.755,26.202,26.202    C282.203,334.783,279.281,341.558,273.979,346.558z"
   id="path5562" />
	</g>
</g>
<g
   id="g5572">
	<g
   id="g5570">
		<path
   d="M404.979,209.876h-36.908v-97.804C368.071,50.275,317.795,0,256.001,0C194.205,0,143.93,50.275,143.93,112.072v97.804    h-36.909c-20.353,0-36.911,16.559-36.911,36.911v228.301c0,20.353,16.558,36.911,36.911,36.911h297.958    c20.353,0,36.911-16.558,36.911-36.911V246.788C441.89,226.435,425.332,209.876,404.979,209.876z M168.536,112.072    c0-48.227,39.236-87.464,87.464-87.464c48.227,0,87.463,39.237,87.463,87.464v97.804H168.536V112.072z M417.283,475.089    L417.283,475.089c0,6.784-5.52,12.304-12.304,12.304H107.021c-6.784,0-12.304-5.519-12.304-12.304V246.788    c0-6.784,5.52-12.304,12.304-12.304h297.958c6.784,0,12.304,5.519,12.304,12.304V475.089z"
   id="path5568" />
	</g>
</g>
<g
   id="g5574">
</g>
<g
   id="g5576">
</g>
<g
   id="g5578">
</g>
<g
   id="g5580">
</g>
<g
   id="g5582">
</g>
<g
   id="g5584">
</g>
<g
   id="g5586">
</g>
<g
   id="g5588">
</g>
<g
   id="g5590">
</g>
<g
   id="g5592">
</g>
<g
   id="g5594">
</g>
<g
   id="g5596">
</g>
<g
   id="g5598">
</g>
<g
   id="g5600">
</g>
<g
   id="g5602">
</g>
<path
   style="opacity:0.75;fill:#111d4a;stroke-width:0.756278"
   d="M 102.85377,511.24763 C 88.787856,509.50175 76.383276,499.19486 72.252606,485.8213 c -1.522649,-4.92975 -1.540537,-6.3848 -1.531665,-124.5893 0.0074,-98.69514 0.189607,-120.27966 1.042344,-123.4822 2.515381,-9.44677 10.216477,-19.09079 18.662244,-23.37058 7.006329,-3.55038 11.548111,-4.11076 33.414941,-4.12284 l 20.23043,-0.0112 v -50.16112 c 0,-30.8036 0.31954,-53.34922 0.82802,-58.42245 4.9128,-49.016072 41.11068,-89.212698 89.16903,-99.0194453 12.89002,-2.63032831 31.48493,-2.63210526 44.12231,-0.00422 47.92546,9.9658963 84.01312,50.1582223 88.91082,99.0236653 0.50848,5.07323 0.82802,27.61885 0.82802,58.42245 v 50.16112 h 20.08113 c 22.90594,0 27.6491,0.68092 34.8675,5.00552 8.71982,5.22411 14.43547,12.61388 17.22016,22.26402 1.09423,3.79195 1.19325,16.03474 1.01244,125.16395 l -0.20043,120.9609 -1.77697,4.40473 c -3.91884,9.714 -12.52443,17.89939 -22.88656,21.769 l -4.8313,1.8042 -152.01182,0.0967 c -83.6065,0.0532 -154.05377,-0.15678 -156.54948,-0.46655 z m 307.75532,-24.94985 c 1.69114,-0.82573 3.92562,-2.75761 4.9655,-4.29306 l 1.8907,-2.79172 0.19837,-117.28852 0.19838,-117.28853 -1.71094,-3.3872 c -0.941,-1.86296 -2.86731,-4.15568 -4.28066,-5.09494 l -2.56975,-1.70772 H 256 102.69931 l -2.56974,1.70772 c -1.413363,0.93926 -3.335478,3.22348 -4.271372,5.07606 l -1.701625,3.36832 0.0042,115.73931 c 0.0027,75.38949 0.269812,116.69548 0.766048,118.482 0.875029,3.1502 3.881164,6.47069 7.170659,7.92046 1.85572,0.81788 29.86908,1.00534 153.85279,1.02955 149.70046,0.0292 151.62218,0.011 154.65879,-1.47173 z M 343.72517,157.49483 c -0.003,-57.12238 -0.17644,-60.123895 -4.17842,-72.430719 -8.05203,-24.761465 -26.78422,-44.859719 -50.74488,-54.445489 -11.32873,-4.532205 -18.5252,-5.865742 -32.04559,-5.938179 -13.06388,-0.06999 -16.66252,0.430612 -27.60414,3.839988 -30.86048,9.616038 -54.51007,36.981488 -59.71934,69.102556 -0.95638,5.897193 -1.15545,16.190013 -1.15797,59.871843 l -0.003,52.75037 H 256 343.72821 l -0.003,-52.75037 z"
   id="path6172" /><path
   style="opacity:0.75;fill:#111d4a;stroke-width:0.756278"
   d="m 246.943,443.4789 c -12.10764,-3.25362 -22.6365,-14.82115 -24.97641,-27.44032 -0.41545,-2.24053 -0.76401,-14.83255 -0.77457,-27.98228 l -0.0192,-23.90859 -3.80302,-4.53767 c -7.52244,-8.97559 -11.55996,-20.20167 -11.55996,-32.1418 0,-8.53305 1.48849,-14.89656 5.23259,-22.37014 8.60475,-17.17588 25.80584,-27.82002 44.95757,-27.82002 19.13082,0 36.35192,10.64481 44.93494,27.77543 3.76635,7.51717 5.25522,13.86755 5.25522,22.41473 0,11.90458 -3.91037,22.77117 -11.62539,32.30605 l -3.776,4.66669 v 23.76196 c 0,13.06907 -0.34737,25.59364 -0.77194,27.83236 -1.79936,9.48806 -8.79865,19.42565 -16.97801,24.1054 -7.63283,4.36707 -17.54745,5.63536 -26.09582,3.3382 z m 14.90762,-24.2256 c 4.30782,-2.68186 4.32765,-2.81897 4.73727,-32.75985 l 0.37814,-27.63968 1.97816,-4.15953 c 1.08799,-2.28774 3.78192,-6.20067 5.98652,-8.69539 5.94404,-6.72631 7.15974,-9.87273 7.15974,-18.53061 0,-5.78498 -0.32097,-7.87964 -1.64757,-10.75217 -2.30978,-5.00143 -7.98769,-10.78671 -13.00453,-13.25044 -3.73861,-1.836 -5.12374,-2.08897 -11.43835,-2.08897 -6.31461,0 -7.69974,0.25297 -11.43835,2.08897 -5.01684,2.46373 -10.69475,8.24901 -13.00453,13.25044 -1.3266,2.87253 -1.64757,4.96719 -1.64757,10.75217 0,8.65788 1.2157,11.8043 7.15974,18.53061 2.2046,2.49472 4.89853,6.40765 5.98652,8.69539 l 1.97816,4.15953 0.37814,27.60413 c 0.25864,18.88027 0.65477,28.08484 1.25344,29.12516 2.93542,5.10092 10.1039,6.83356 15.18507,3.67024 z"
   id="path6174" /></svg>
