<?xml version="1.0" encoding="UTF-8" standalone="no"?>
<svg
   xmlns:dc="http://purl.org/dc/elements/1.1/"
   xmlns:cc="http://creativecommons.org/ns#"
   xmlns:rdf="http://www.w3.org/1999/02/22-rdf-syntax-ns#"
   xmlns:svg="http://www.w3.org/2000/svg"
   xmlns="http://www.w3.org/2000/svg"
   xmlns:sodipodi="http://sodipodi.sourceforge.net/DTD/sodipodi-0.dtd"
   xmlns:inkscape="http://www.inkscape.org/namespaces/inkscape"
   version="1.1"
   id="Layer_1"
   x="0px"
   y="0px"
   viewBox="0 0 512.002 512.002"
   style="enable-background:new 0 0 512.002 512.002;"
   xml:space="preserve"
   sodipodi:docname="icona3.svg"
   inkscape:version="1.0.2 (e86c870, 2021-01-15)"><metadata
   id="metadata1309"><rdf:RDF><cc:Work
       rdf:about=""><dc:format>image/svg+xml</dc:format><dc:type
         rdf:resource="http://purl.org/dc/dcmitype/StillImage" /></cc:Work></rdf:RDF></metadata><defs
   id="defs1307" /><sodipodi:namedview
   pagecolor="#ffffff"
   bordercolor="#666666"
   borderopacity="1"
   objecttolerance="10"
   gridtolerance="10"
   guidetolerance="10"
   inkscape:pageopacity="0"
   inkscape:pageshadow="2"
   inkscape:window-width="2560"
   inkscape:window-height="1415"
   id="namedview1305"
   showgrid="false"
   inkscape:zoom="2.3808501"
   inkscape:cx="256.001"
   inkscape:cy="256.001"
   inkscape:window-x="0"
   inkscape:window-y="0"
   inkscape:window-maximized="1"
   inkscape:current-layer="Layer_1" />
<g
   id="g1260">
	<g
   id="g1258">
		<path
   d="M302.78,239.712c-4.434-4.429-11.619-4.429-16.05,0.001l-21.306,21.306c-2.937-1.089-6.11-1.687-9.422-1.687    c-3.314,0-6.49,0.599-9.429,1.691l-43.793-43.795c-4.431-4.429-11.616-4.429-16.046,0c-4.431,4.431-4.432,11.616,0,16.048    l43.797,43.798c-1.089,2.935-1.686,6.108-1.686,9.418c0,14.975,12.183,27.159,27.159,27.159c14.976,0,27.159-12.183,27.159-27.159    c0-3.312-0.598-6.487-1.688-9.426l21.306-21.306C307.211,251.329,307.211,244.144,302.78,239.712z M256.002,293.225    c-3.714,0-6.735-3.022-6.735-6.735s3.022-6.735,6.735-6.735c3.714,0,6.735,3.022,6.735,6.735    C262.736,290.204,259.715,293.225,256.002,293.225z"
   id="path1256" />
	</g>
</g>
<g
   id="g1266">
	<g
   id="g1264">
		<path
   d="M389.959,114.459l12.856-18.36l51.541,36.09c1.92,1.346,4.196,2.053,6.508,2.053c0.656,0,1.315-0.057,1.97-0.172    c2.964-0.522,5.598-2.2,7.324-4.666c26.013-37.151,16.952-88.54-20.198-114.555c-37.151-26.017-88.542-16.953-114.553,20.198    c-3.595,5.133-2.346,12.208,2.786,15.802l46.034,32.234l-12.859,18.365C337.88,80.494,298.334,68.36,256.002,68.36    c-42.332,0-81.877,12.134-115.366,33.088l-12.86-18.365l46.034-32.234c5.133-3.595,6.381-10.669,2.787-15.802    C150.584-2.105,99.195-11.166,62.043,14.848C24.892,40.861,15.83,92.25,41.843,129.402c1.726,2.466,4.361,4.144,7.324,4.666    c0.655,0.117,1.314,0.172,1.97,0.172c2.312,0,4.589-0.708,6.508-2.053l51.541-36.09l12.856,18.36    C70.85,154.412,37.87,216.669,37.87,286.491c0,75.929,39.004,142.91,98.02,181.99l-17.97,25.664    c-3.595,5.132-2.346,12.208,2.786,15.802c1.981,1.388,4.25,2.054,6.498,2.054c3.576,0,7.097-1.687,9.304-4.84l18.986-27.115    c30.097,15.691,64.281,24.579,100.506,24.579c36.221,0,70.402-8.886,100.496-24.573l18.982,27.11    c2.207,3.152,5.728,4.841,9.304,4.841c2.247,0,4.518-0.666,6.498-2.054c5.133-3.595,6.38-10.669,2.786-15.802l-17.965-25.657    c59.021-39.079,98.029-106.063,98.029-181.996C474.133,216.669,441.154,154.412,389.959,114.459z M361.392,39.391    c20.088-19.425,51.829-22.564,75.553-5.955c23.724,16.613,31.629,47.514,20.246,73.033L361.392,39.391z M54.814,106.47    C43.43,80.951,51.335,50.049,75.06,33.437c10.375-7.264,22.28-10.751,34.077-10.751c15.177,0,30.173,5.775,41.475,16.706    L54.814,106.47z M256.002,481.93c-107.766,0-195.439-87.673-195.439-195.439S148.236,91.053,256.002,91.053    s195.439,87.673,195.439,195.438S363.767,481.93,256.002,481.93z"
   id="path1262" />
	</g>
</g>
<g
   id="g1272">
	<g
   id="g1270">
		<path
   d="M256.002,126.07c-88.456,0-160.421,71.965-160.421,160.421s71.965,160.421,160.421,160.421s160.42-71.965,160.42-160.421    S344.458,126.07,256.002,126.07z M362.642,377.084l-7.667-7.666c-4.431-4.43-11.616-4.43-16.046,0    c-4.431,4.431-4.431,11.616,0,16.046l7.666,7.667c-21.731,18.489-49.159,30.47-79.246,32.895v-10.912    c0-6.266-5.08-11.347-11.347-11.347c-6.267,0-11.347,5.081-11.347,11.347v10.912c-30.088-2.425-57.515-14.406-79.247-32.895    l7.667-7.667c4.431-4.431,4.431-11.616,0-16.046c-4.431-4.43-11.616-4.43-16.048,0l-7.667,7.667    c-18.489-21.731-30.47-49.159-32.895-79.247h10.912c6.267,0,11.347-5.08,11.347-11.347c0-6.267-5.08-11.347-11.347-11.347h-10.912    c2.425-30.088,14.406-57.515,32.895-79.247l7.667,7.667c2.216,2.215,5.12,3.323,8.023,3.323s5.808-1.109,8.023-3.323    c4.431-4.431,4.431-11.616,0-16.048l-7.667-7.667c21.731-18.489,49.159-30.47,79.247-32.895v10.913    c0,6.266,5.08,11.347,11.347,11.347c6.267,0,11.347-5.081,11.347-11.347v-10.913c30.088,2.425,57.515,14.406,79.246,32.895    l-7.666,7.667c-4.431,4.431-4.431,11.616,0,16.048c2.216,2.215,5.12,3.323,8.023,3.323s5.808-1.109,8.023-3.323l7.667-7.666    c18.489,21.731,30.469,49.158,32.894,79.246h-10.912c-6.267,0-11.347,5.08-11.347,11.347s5.082,11.347,11.348,11.347h10.912    C393.112,327.926,381.131,355.353,362.642,377.084z"
   id="path1268" />
	</g>
</g>
<g
   id="g1274">
</g>
<g
   id="g1276">
</g>
<g
   id="g1278">
</g>
<g
   id="g1280">
</g>
<g
   id="g1282">
</g>
<g
   id="g1284">
</g>
<g
   id="g1286">
</g>
<g
   id="g1288">
</g>
<g
   id="g1290">
</g>
<g
   id="g1292">
</g>
<g
   id="g1294">
</g>
<g
   id="g1296">
</g>
<g
   id="g1298">
</g>
<g
   id="g1300">
</g>
<g
   id="g1302">
</g>
<path
   style="fill:#111d4a;fill-opacity:1;stroke-width:0.420018"
   d="m 382.99083,511.52268 c -2.3976,-0.41679 -4.81907,-1.72296 -6.27441,-3.38447 -0.67116,-0.76624 -5.45972,-7.45717 -10.64124,-14.86876 l -9.42096,-13.47561 -5.9097,2.83101 c -9.0402,4.33068 -16.41247,7.32066 -25.86056,10.48822 -53.8888,18.06679 -111.76241,14.35715 -163.62648,-10.48822 l -5.9097,-2.83101 -9.42096,13.47561 c -5.18152,7.41159 -9.9866,14.12134 -10.67795,14.9106 -2.66072,3.03744 -8.37292,4.33702 -12.14164,2.76237 -2.08659,-0.87183 -4.752,-3.35855 -5.79841,-5.40971 -1.29779,-2.54388 -1.48028,-6.36739 -0.41847,-8.76779 0.47232,-1.06773 4.86797,-7.64983 9.76813,-14.62688 4.90016,-6.97708 8.98116,-12.98758 9.06888,-13.35674 0.10617,-0.44677 -0.77768,-1.30315 -2.6435,-2.56127 C 114.36431,453.59731 95.174263,435.14454 81.21529,416.34416 45.609453,368.38912 31.261511,308.73662 41.189648,249.93494 c 7.378922,-43.70337 28.684428,-84.9932 60.244712,-116.75358 5.66992,-5.70587 13.60195,-12.86904 18.18315,-16.42064 1.62286,-1.25813 2.37312,-2.11801 2.25417,-2.58351 -0.32458,-1.27016 -12.56077,-18.398525 -12.96507,-18.148656 -0.21803,0.134754 -12.087372,8.426116 -26.376306,18.425266 -14.288931,9.99914 -26.844675,18.51052 -27.901651,18.91419 -2.601007,0.99333 -6.308484,0.65738 -8.789244,-0.79645 -2.357341,-1.38149 -3.830828,-3.08512 -6.522362,-7.5411 C 21.650586,95.782743 23.508631,59.862404 44.100695,32.551399 47.713125,27.760276 54.430698,20.919931 58.802527,17.580872 70.453642,8.682133 83.480994,3.1697364 97.864205,1.0523017 103.84622,0.17165529 114.62339,0.18039162 120.61963,1.070748 c 14.99539,2.2266015 29.23016,8.464298 40.62311,17.801103 6.53733,5.357507 15.13803,15.282428 16.43917,18.970242 0.73912,2.094888 0.79561,5.185165 0.13056,7.142168 -1.16404,3.425343 -2.21193,4.269344 -26.15759,21.068222 -12.92096,9.064586 -23.65861,16.593792 -23.86145,16.731575 -0.32756,0.2225 11.86103,18.130182 12.68784,18.641172 0.18252,0.11281 2.00883,-0.80515 4.05847,-2.039892 63.0406,-37.976805 142.25291,-40.99584 208.27542,-7.938043 6.89034,3.450029 14.72486,7.773724 17.11287,9.444205 0.6337,0.44329 1.33008,0.69604 1.54752,0.56166 0.48452,-0.29946 12.84096,-17.963934 12.84096,-18.357146 0,-0.154634 -10.30094,-7.48678 -22.89098,-16.293656 -12.59004,-8.806875 -23.58137,-16.673376 -24.42518,-17.481113 -2.01605,-1.929878 -2.99226,-4.049932 -3.21303,-6.977798 -0.24487,-3.247601 0.61227,-5.529145 3.55863,-9.47235 5.30156,-7.095222 13.18948,-14.385265 21.13945,-19.53714 18.74292,-12.1460961 42.65144,-16.079162 64.34177,-10.5845265 26.75284,6.7770803 48.42296,26.7310885 57.44297,52.8939895 6.9555,20.174617 5.68356,42.641576 -3.49602,61.75162 -2.44387,5.08769 -6.0496,11.1002 -7.76802,12.95303 -2.95433,3.18547 -7.86488,4.45889 -11.63786,3.01798 -1.05979,-0.40474 -13.58281,-8.89786 -27.8289,-18.8736 -14.2461,-9.97574 -26.11314,-18.266231 -26.37119,-18.42331 -0.46483,-0.282941 -12.67,16.66865 -13.03783,18.10807 -0.11895,0.4655 0.63131,1.32538 2.25417,2.58351 11.04266,8.56088 25.32572,23.04225 35.25264,35.7421 43.41739,55.54535 57.3058,128.55762 37.25644,195.85986 -13.95337,46.83905 -44.47063,89.16924 -83.92263,116.40825 -3.25612,2.24815 -4.78831,3.55503 -4.68933,3.99983 0.0809,0.36336 4.11576,6.32178 8.96643,13.2409 4.85068,6.91913 9.17331,13.23712 9.60585,14.03999 1.15623,2.14612 1.0918,7.17811 -0.12125,9.46872 -1.02294,1.93166 -3.80558,4.61062 -5.50287,5.29785 -1.83652,0.74356 -4.3689,1.02951 -6.23894,0.70446 z M 267.76151,481.74797 c 56.14272,-3.47422 106.79381,-30.03633 142.1408,-74.54047 4.47951,-5.64 13.1131,-18.51169 16.62172,-24.78107 13.67408,-24.43357 21.65446,-50.2331 24.42515,-78.96339 0.67287,-6.97714 0.66573,-27.46059 -0.0118,-34.02146 -2.79849,-27.09522 -9.27877,-49.63053 -20.65491,-71.82718 -13.5964,-26.52874 -33.22876,-49.78575 -57.30648,-67.88673 -21.42585,-16.10737 -47.63705,-28.20254 -73.92318,-34.111859 -14.26954,-3.207905 -27.23652,-4.590554 -43.05185,-4.590554 -19.31788,0 -35.4889,2.189432 -53.38516,7.227931 -12.05352,3.393542 -20.42648,6.675052 -33.34857,13.069872 -20.07853,9.93637 -35.69527,21.14198 -51.4617,36.92573 -9.98555,9.99651 -17.36343,18.93379 -24.632504,29.83886 -18.200924,27.30503 -28.882988,57.68785 -32.11843,91.35393 -0.673587,7.00894 -0.677153,26.95681 -0.0061,34.02146 3.909637,41.15838 18.927683,77.2298 45.466504,109.20469 4.49015,5.40988 17.86063,18.78035 23.27052,23.27051 13.2088,10.96319 26.14162,19.37476 40.74175,26.49873 30.04081,14.65809 63.86605,21.37585 97.23418,19.311 z M 102.90442,73.119724 c 26.10412,-18.284285 47.46204,-33.5016 47.46204,-33.816255 0,-1.360595 -8.33487,-7.432245 -14.38541,-10.479248 -8.12291,-4.09063 -14.78824,-5.716016 -24.69924,-6.023068 -11.25668,-0.348743 -18.831474,1.194523 -28.118237,5.728725 -14.611541,7.133992 -24.957102,18.760815 -30.388855,34.152418 -3.730289,10.570271 -4.25183,24.876094 -1.282612,35.181909 1.105912,3.838495 3.127376,8.822695 3.516334,8.670015 0.238668,-0.0937 21.79186,-15.130212 47.89598,-33.414496 z m 355.87869,29.889706 c 2.68933,-7.331179 3.60493,-12.70313 3.59729,-21.105911 -0.0203,-22.319486 -12.26294,-42.458575 -32.01112,-52.658121 -4.86424,-2.512278 -8.34604,-3.818524 -13.90287,-5.215855 -4.07988,-1.025934 -5.12344,-1.114631 -13.24908,-1.126105 -6.95731,-0.0098 -9.57449,0.148271 -12.39054,0.748468 -9.85009,2.099392 -19.64449,6.879319 -26.88115,13.118714 -1.27056,1.095463 -2.3101,2.2434 -2.3101,2.550972 0,0.462353 94.85834,67.309708 95.57175,67.350098 0.1252,0.007 0.83436,-1.64093 1.57582,-3.66226 z"
   id="path1311" /><path
   style="fill:#111d4a;fill-opacity:1;stroke-width:0.420018"
   d="m 247.81065,446.45352 c -54.91888,-2.76524 -104.82476,-33.9585 -131.88083,-82.43104 -9.78804,-17.53585 -15.90597,-36.1826 -18.973587,-57.82932 -1.087564,-7.67443 -1.091052,-31.03124 -0.0058,-39.06168 2.56375,-18.97133 7.175607,-34.42046 15.097287,-50.57397 8.35765,-17.04253 17.2692,-29.46097 30.93709,-43.11151 13.10318,-13.08655 24.68682,-21.57098 40.3531,-29.55663 17.60377,-8.97326 33.64659,-13.84512 55.02236,-16.70913 6.47738,-0.86786 29.9396,-0.72721 36.96159,0.22159 19.78446,2.67322 36.18792,7.74336 53.34229,16.48754 15.68486,7.99512 27.36879,16.55181 40.34319,29.54522 13.089,13.10817 21.57192,24.69017 29.55663,40.3546 8.76539,17.19597 13.80728,33.50796 16.48766,53.34229 1.07422,7.94909 1.07574,30.85473 0.003,38.85167 -3.43923,25.628 -12.01285,48.58397 -25.88337,69.30298 -25.58925,38.22382 -65.98701,63.57721 -111.38322,69.90344 -4.99737,0.69641 -21.61476,1.86794 -23.25663,1.63959 -0.23101,-0.0321 -3.25514,-0.20117 -6.72029,-0.37564 z m -3.05945,-26.96049 c 0.1425,-4.86846 0.38728,-7.26358 0.85377,-8.35398 0.98435,-2.30089 3.62994,-4.99404 5.98584,-6.09345 4.24944,-1.98306 9.24515,-0.87826 12.53635,2.7724 2.59263,2.8758 2.89962,4.02185 3.12322,11.65957 l 0.19935,6.80984 1.94097,-0.22559 c 17.32,-2.01301 29.99348,-5.41419 44.83201,-12.03156 9.93808,-4.43197 23.00369,-12.64862 31.45214,-19.7795 l 1.26006,-1.06355 -4.48323,-4.54035 c -5.47504,-5.5448 -6.43724,-7.22798 -6.43724,-11.26064 0,-2.51511 0.18849,-3.27245 1.30394,-5.23905 2.21007,-3.89645 6.58904,-6.24022 10.74285,-5.7499 3.11071,0.36718 5.2754,1.75376 10.02716,6.42286 2.43826,2.39584 4.53917,4.35608 4.66869,4.35608 0.42105,0 6.87816,-8.49562 9.89631,-13.02056 12.26559,-18.38916 20.74528,-41.50856 22.56882,-61.53265 0.14726,-1.61707 0.35132,-3.34599 0.45346,-3.84206 0.18294,-0.88849 0.084,-0.90414 -6.63677,-1.05004 -6.51744,-0.14149 -6.93253,-0.20215 -9.28403,-1.35678 -3.84315,-1.88706 -6.05926,-5.48409 -6.11276,-9.92181 -0.0367,-3.04853 1.3653,-6.03384 3.8687,-8.23743 2.66019,-2.34159 4.16119,-2.68304 11.79461,-2.68304 h 6.57152 l -0.20859,-1.57507 c -0.11472,-0.86629 -0.41839,-3.37064 -0.67482,-5.56524 -2.3232,-19.88272 -10.42283,-41.64659 -21.96208,-59.01253 -2.09966,-3.15987 -6.69714,-9.38277 -9.58149,-12.969 -0.69594,-0.86528 -0.77427,-0.81033 -5.67024,3.978 -3.95149,3.86461 -5.38695,4.9988 -7.03447,5.55814 -5.31418,1.80418 -10.77223,-0.30441 -13.46792,-5.203 -1.06353,-1.93264 -1.25573,-2.73757 -1.24758,-5.22474 0.0131,-4.0151 0.97323,-5.69271 6.44376,-11.25972 4.41307,-4.49089 4.45131,-4.54702 3.57657,-5.25022 -3.24459,-2.60834 -9.69563,-7.40844 -12.38316,-9.21407 -18.3138,-12.30424 -40.97635,-20.49127 -62.80812,-22.68995 l -3.41299,-0.34372 -0.18971,6.73808 c -0.21854,7.76212 -0.7316,9.48398 -3.67787,12.34324 -2.27803,2.21075 -5.14938,3.18025 -8.59884,2.90336 -3.01645,-0.24213 -4.67835,-1.00591 -6.79553,-3.12308 -2.71929,-2.7193 -3.22321,-4.4963 -3.43796,-12.12352 l -0.18971,-6.73808 -3.41299,0.34372 c -24.49984,2.46738 -49.17008,12.16864 -68.86686,27.081 -2.81004,2.12747 -5.58153,4.24291 -6.15888,4.70097 l -1.04973,0.83285 4.46076,4.53942 c 5.47053,5.56701 6.4306,7.24462 6.44376,11.25972 0.008,2.48717 -0.18405,3.2921 -1.24758,5.22474 -2.69569,4.89859 -8.15374,7.00718 -13.46792,5.203 -1.64752,-0.55934 -3.08298,-1.69353 -7.03447,-5.55814 -4.89597,-4.78833 -4.9743,-4.84328 -5.67024,-3.978 -9.54451,11.86704 -15.78282,22.02821 -21.48332,34.99275 -4.86087,11.05497 -9.25513,27.65302 -10.29301,38.87886 -0.1495,1.61707 -0.36714,3.44757 -0.48363,4.06779 l -0.2118,1.12765 7.27267,0.1324 c 8.01278,0.14587 9.03106,0.40609 11.68881,2.98699 5.57933,5.418 3.84992,14.81225 -3.32856,18.08091 -1.63922,0.74641 -2.94837,0.90196 -8.7501,1.0397 -6.71753,0.15947 -6.81962,0.17584 -6.63677,1.06389 0.10214,0.49607 0.3062,2.22499 0.45346,3.84206 1.86487,20.47798 11.08786,45.12039 23.65881,63.21272 2.52289,3.63099 8.50961,11.34049 8.80632,11.34049 0.12952,0 2.23043,-1.96024 4.66869,-4.35608 5.45643,-5.36151 7.15079,-6.32493 11.15348,-6.34191 2.5282,-0.0107 3.26222,0.17021 5.23905,1.29147 3.91754,2.22202 6.2403,6.5885 5.74349,10.79697 -0.37936,3.21361 -1.75438,5.35776 -6.41362,10.00114 -2.3974,2.38924 -4.35891,4.46378 -4.35891,4.61008 0,0.32117 7.53549,6.19303 11.34049,8.83683 18.36935,12.76343 40.99988,21.21162 63.84274,23.83311 1.73258,0.19883 3.36185,0.38604 3.62061,0.41601 0.32306,0.0374 0.53308,-2.08413 0.67026,-6.7708 z"
   id="path1313" /><path
   style="fill:#111d4a;fill-opacity:1;stroke-width:0.420018"
   d="m 249.70073,312.67362 c -12.61261,-3.30076 -21.25581,-14.98672 -20.45476,-27.65566 0.1327,-2.09873 0.53304,-4.76092 0.88964,-5.91597 l 0.64837,-2.10009 -22.65309,-22.68097 c -17.23915,-17.26038 -22.8564,-23.13269 -23.50381,-24.57106 -2.52518,-5.61022 0.49823,-12.64807 6.40213,-14.90279 2.36465,-0.90307 6.02966,-0.72995 8.47936,0.40051 1.13878,0.52552 8.98757,8.0583 24.36105,23.38023 l 22.68097,22.60492 2.10009,-0.69051 c 2.91716,-0.95916 11.78252,-0.95938 14.70031,-3.6e-4 l 2.09977,0.69015 11.34081,-11.31003 c 8.83471,-8.81073 11.80489,-11.51988 13.4409,-12.25965 9.34441,-4.22536 18.99073,5.7979 14.40576,14.96866 -0.49703,0.99416 -5.48065,6.359 -12.10448,13.03042 l -11.25959,11.34048 0.77979,2.94013 c 3.12093,11.7673 -2.93642,25.01982 -13.88664,30.3818 -1.95577,0.95768 -4.68245,2.02662 -6.05929,2.37543 -3.11601,0.78942 -9.34203,0.77655 -12.40729,-0.0256 z m 8.53317,-19.68953 c 3.0354,-1.08256 4.58432,-3.30842 4.58432,-6.58786 0,-4.00132 -2.72403,-6.66421 -6.81722,-6.66421 -2.78184,0 -4.71367,1.05199 -6.01101,3.27335 -1.5021,2.57194 -0.87973,6.64236 1.32,8.63309 0.89327,0.80838 3.60639,1.91728 4.69101,1.91728 0.34651,0 1.35132,-0.25724 2.2329,-0.57165 z"
   id="path1315" /></svg>
