<?xml version="1.0" encoding="UTF-8" standalone="no"?>
<svg
   xmlns:dc="http://purl.org/dc/elements/1.1/"
   xmlns:cc="http://creativecommons.org/ns#"
   xmlns:rdf="http://www.w3.org/1999/02/22-rdf-syntax-ns#"
   xmlns:svg="http://www.w3.org/2000/svg"
   xmlns="http://www.w3.org/2000/svg"
   xmlns:sodipodi="http://sodipodi.sourceforge.net/DTD/sodipodi-0.dtd"
   xmlns:inkscape="http://www.inkscape.org/namespaces/inkscape"
   version="1.1"
   id="Layer_1"
   x="0px"
   y="0px"
   viewBox="0 0 512 512"
   style="enable-background:new 0 0 512 512;"
   xml:space="preserve"
   sodipodi:docname="icona2.svg"
   inkscape:version="1.0.2 (e86c870, 2021-01-15)"><metadata
   id="metadata1151"><rdf:RDF><cc:Work
       rdf:about=""><dc:format>image/svg+xml</dc:format><dc:type
         rdf:resource="http://purl.org/dc/dcmitype/StillImage" /></cc:Work></rdf:RDF></metadata><defs
   id="defs1149" /><sodipodi:namedview
   pagecolor="#ffffff"
   bordercolor="#666666"
   borderopacity="1"
   objecttolerance="10"
   gridtolerance="10"
   guidetolerance="10"
   inkscape:pageopacity="0"
   inkscape:pageshadow="2"
   inkscape:window-width="2560"
   inkscape:window-height="1415"
   id="namedview1147"
   showgrid="false"
   inkscape:zoom="2.3808594"
   inkscape:cx="256"
   inkscape:cy="256"
   inkscape:window-x="0"
   inkscape:window-y="0"
   inkscape:window-maximized="1"
   inkscape:current-layer="Layer_1" />
<g
   id="g1102">
	<g
   id="g1100">
		<path
   d="M512,89.745C512,40.259,471.74,0,422.255,0c-26.09,0-49.607,11.198-66.02,29.031    C323.63,14.307,288.815,6.826,252.587,6.826C113.31,6.826,0,120.137,0,259.413S113.31,512,252.587,512    s252.587-113.31,252.587-252.587c0-36.229-7.48-71.043-22.206-103.649C500.802,139.351,512,115.835,512,89.745z M422.255,25.259    c35.558,0,64.487,28.929,64.487,64.487c0,35.558-28.929,64.487-64.487,64.487s-64.487-28.929-64.487-64.487    C357.769,54.187,386.697,25.259,422.255,25.259z M252.587,486.741c-125.349,0-227.328-101.979-227.328-227.328    S127.238,32.085,252.587,32.085c31.077,0,60.993,6.096,89.123,18.131c-5.881,11.935-9.199,25.35-9.199,39.53    c0,49.486,40.259,89.745,89.745,89.745c14.18,0,27.595-3.319,39.53-9.199c12.033,28.128,18.129,58.043,18.129,89.122    C479.915,384.762,377.936,486.741,252.587,486.741z"
   id="path1098" />
	</g>
</g>
<g
   id="g1108">
	<g
   id="g1106">
		<path
   d="M455.773,77.116h-20.889V56.227c0-6.975-5.654-12.629-12.629-12.629s-12.629,5.654-12.629,12.629v20.889h-20.889    c-6.975,0-12.629,5.654-12.629,12.629c0,6.974,5.654,12.629,12.629,12.629h20.889v20.889c0,6.975,5.654,12.629,12.629,12.629    s12.629-5.654,12.629-12.629v-20.889h20.889c6.975,0,12.629-5.654,12.629-12.629C468.402,82.77,462.748,77.116,455.773,77.116z"
   id="path1104" />
	</g>
</g>
<g
   id="g1114">
	<g
   id="g1112">
		<path
   d="M330.183,304.615c-0.283-0.021-31.141,1.063-39.987-31.293c5.768-4.406,11.113-9.845,15.875-16.293    c10.223-13.84,16.891-31.092,19.419-49.747c0.724-0.859,1.331-1.839,1.79-2.929c4.38-10.429,6.601-21.563,6.601-33.091    c0-44.388-33.609-80.501-74.92-80.501c-10.606,0-20.899,2.387-30.631,7.099c-3.589,0.322-7.108,0.976-10.49,1.955    c-34.616,10.001-54.211,51.735-43.68,93.032c1.057,4.144,3.616,12.086,5.695,14.962c3.937,28.114,17.099,51.604,35.148,65.399    c-8.995,32.893-39.723,31.388-40.003,31.408c-29.837,0.959-53.819,25.513-53.819,55.579v36.326    c0,13.642,11.099,24.741,24.741,24.741h213.324c13.642,0,24.741-11.099,24.741-24.741v-36.326    C383.984,330.132,360.012,305.582,330.183,304.615z M224.149,121.655c2.463-0.712,5.073-1.134,7.757-1.257    c1.666-0.076,3.296-0.517,4.773-1.292c7.088-3.723,14.584-5.611,22.281-5.611c27.253,0,49.68,23.248,51.979,52.768    c-5.669-3.567-12.369-5.639-19.548-5.639h-51.436c-2.23,0-4.346-0.698-6.116-2.021c-1.517-1.133-2.689-2.652-3.387-4.392    c-2.1-5.239-7.288-8.521-12.931-8.162c-5.657,0.359-10.417,4.286-11.848,9.775c-2.16,8.3-5.974,16.095-11.105,22.93    C191.163,152.267,203.402,127.649,224.149,121.655z M202.279,204.025c8.012-7.483,14.61-16.383,19.381-26.201    c5.422,3.626,11.71,5.533,18.295,5.533h51.436c5.442,0,10.163,3.106,12.509,7.633c-0.191,29.817-12.848,55.435-30.856,66.673    c-0.572,0.274-8.786,6.087-20.415,6.087C228.273,263.749,206.861,237.914,202.279,204.025z M286.186,310.088    c-9.669,7.032-21.402,10.924-33.556,10.923c-12.175,0-23.925-3.904-33.603-10.956c7.509-7.105,13.279-16.046,16.571-26.121    c5.475,1.665,11.177,2.547,17.031,2.547c5.797,0,11.47-0.871,16.954-2.511C272.885,294.047,278.667,302.986,286.186,310.088z     M361.251,396.518L361.251,396.518c0,1.108-0.901,2.008-2.008,2.008H145.919c-1.108,0-2.008-0.9-2.008-2.008v-36.326    c0-18.137,14.755-32.892,32.892-32.892c0.306,0,11.036-0.179,22.071-4.389c14.616,13.328,33.781,20.833,53.757,20.833    c19.962,0,39.119-7.499,53.733-20.812c11.255,4.583,21.69,4.369,21.997,4.369c18.136,0,32.891,14.755,32.891,32.892V396.518z"
   id="path1110" />
	</g>
</g>
<g
   id="g1116">
</g>
<g
   id="g1118">
</g>
<g
   id="g1120">
</g>
<g
   id="g1122">
</g>
<g
   id="g1124">
</g>
<g
   id="g1126">
</g>
<g
   id="g1128">
</g>
<g
   id="g1130">
</g>
<g
   id="g1132">
</g>
<g
   id="g1134">
</g>
<g
   id="g1136">
</g>
<g
   id="g1138">
</g>
<g
   id="g1140">
</g>
<g
   id="g1142">
</g>
<g
   id="g1144">
</g>
<path
   style="fill:#111d4a;fill-opacity:1;stroke-width:0.420016"
   d="M 243.1895,511.51211 C 207.7406,510.3952 172.6146,501.41197 140.07547,485.14134 106.51433,468.35971 76.630175,443.86511 53.506541,414.18505 5.4987893,352.56526 -11.16254,273.03919 8.0507199,197.22019 29.889578,111.04011 96.953878,41.763932 182.49713,17.020298 c 17.64747,-5.104583 35.14921,-8.160101 54.39212,-9.4959767 8.91498,-0.6188925 31.12536,-0.2660337 39.9354,0.6344583 27.30258,2.7906524 53.63168,9.6628924 77.03917,20.1082364 l 2.31009,1.030853 4.1517,-3.982548 c 16.88845,-16.2003669 38.4065,-24.91378876 61.58347,-24.93733605 10.84474,-0.011018 18.5972,1.21580445 28.55852,4.51936055 37.63989,12.4828525 62.84583,48.8825635 61.1777,88.3462965 -0.94769,22.418928 -9.84342,42.949088 -25.59564,59.071228 l -3.3406,3.41905 2.30711,5.4013 c 13.30868,31.15773 19.7834,63.32455 19.77127,98.22491 -0.0105,30.54544 -4.76102,57.85567 -14.94045,85.89336 -30.00366,82.64049 -101.44859,144.19755 -187.43518,161.49441 -19.75373,3.97361 -37.92302,5.43527 -59.22231,4.76421 z m 25.621,-25.14454 c 12.51507,-0.91093 25.17236,-2.89475 37.49921,-5.87737 6.26526,-1.51592 18.16136,-4.94632 20.38025,-5.87691 0.50756,-0.21286 3.19093,-1.22418 5.96303,-2.24738 38.85942,-14.34314 75.45346,-41.57864 100.72918,-74.9688 26.78676,-35.38632 41.89437,-74.41913 45.89511,-118.57713 0.89026,-9.82599 0.87871,-29.20581 -0.0235,-39.20062 -1.63467,-18.1123 -4.80134,-33.81183 -10.14117,-50.27739 -1.9564,-6.03259 -6.63156,-18.58796 -7.1465,-19.1924 -0.0783,-0.0919 -1.68359,0.53744 -3.56728,1.3985 -12.54064,5.73248 -28.5213,8.55224 -42.31285,7.46602 -42.81097,-3.37178 -77.07467,-35.70174 -82.57706,-77.91665 -0.35533,-2.726191 -0.64237,-7.923894 -0.63787,-11.550454 0.0155,-12.429038 2.1883,-23.173805 7.00931,-34.66122 1.0885,-2.593652 1.75017,-4.70342 1.54045,-4.911743 -0.59618,-0.592354 -11.60694,-4.760945 -18.6382,-7.056343 C 285.94709,30.892518 244.80682,28.658543 206.45502,36.600929 170.183,44.11261 135.84671,60.655258 107.3658,84.340466 43.218651,137.6863 13.459006,220.91897 29.244725,302.83183 c 14.759331,76.58689 68.746501,140.90425 141.870165,169.01632 21.62192,8.31242 41.31345,12.59672 67.45443,14.67601 4.21994,0.33567 24.95341,0.22832 30.24118,-0.15659 z M 427.99672,154.1387 c 24.96498,-2.41121 45.7061,-18.06154 54.65883,-41.24309 6.42067,-16.625304 5.51675,-35.807092 -2.44025,-51.783223 -8.88011,-17.829465 -24.99854,-30.376842 -44.57668,-34.700672 -6.09485,-1.346053 -17.51419,-1.557778 -24.02254,-0.445402 -13.51718,2.310289 -25.35073,8.434459 -35.06153,18.145255 -5.4119,5.411903 -8.98246,10.380722 -12.21667,17.000819 -2.84747,5.828496 -4.1581,9.58388 -5.49696,15.750615 -0.82683,3.808365 -0.95511,5.585135 -0.9401,13.020509 0.0191,9.477666 0.55769,13.049679 3.12114,20.701049 9.35353,27.91843 37.73918,46.37781 66.97476,43.55414 z"
   id="path1153" /><path
   style="fill:#111d4a;fill-opacity:1;stroke-width:0.420016"
   d="m 139.70743,420.19381 c -8.41193,-2.26248 -15.96333,-10.11796 -17.68127,-18.39325 -0.33319,-1.60495 -0.43057,-9.51375 -0.32475,-26.37459 0.16525,-26.33057 0.0901,-25.4518 2.8708,-33.57296 4.41844,-12.90423 15.06757,-24.89748 27.80092,-31.30989 6.22738,-3.13606 15.92642,-5.60089 22.1127,-5.61953 3.5095,-0.0106 7.73042,-0.61018 11.97338,-1.70088 13.24099,-3.40376 23.35765,-13.27692 27.92391,-27.25183 0.70908,-2.17012 0.77988,-2.80699 0.35537,-3.19683 -0.29157,-0.26775 -2.26712,-2.02665 -4.39012,-3.90866 -14.6367,-12.97529 -25.72294,-34.50016 -29.71919,-57.70233 -0.34816,-2.02143 -0.90742,-4.10051 -1.24279,-4.62018 -1.96827,-3.04987 -5.17099,-13.41776 -6.64943,-21.52565 -0.76065,-4.17139 -0.92143,-6.63302 -0.93274,-14.28056 -0.0154,-10.38833 0.5286,-14.7622 2.9189,-23.46952 6.98642,-25.45004 25.91711,-44.39665 48.30559,-48.346219 5.28282,-0.931946 6.22803,-1.199106 10.43523,-2.949478 4.37498,-1.820175 11.72334,-3.74725 16.93463,-4.441032 5.28855,-0.704066 17.3079,-0.266262 22.31155,0.812697 19.29391,4.160428 35.53021,15.372952 46.93579,32.413092 13.07525,19.53465 17.22545,44.35829 11.32108,67.71488 -1.20519,4.76747 -4.10377,12.72619 -4.99743,13.72153 -0.32861,0.366 -0.91756,2.55163 -1.30878,4.85696 -3.66939,21.62249 -13.26711,41.40454 -26.59165,54.80856 -2.23171,2.24501 -4.97875,4.84347 -6.10456,5.77434 l -2.04691,1.69249 0.95115,2.88797 c 4.16186,12.63665 13.1346,21.94066 25.11546,26.04268 4.44002,1.52018 10.89788,2.66981 15.01965,2.67381 3.53895,0.003 9.75431,1.12859 14.24957,2.57956 16.48023,5.31946 30.17208,18.86251 35.65346,35.266 2.52922,7.56887 2.56803,8.08881 2.56803,34.39974 0,24.14605 -2e-4,24.15152 -0.97096,26.96104 -2.00028,5.78913 -6.55991,11.18998 -11.73949,13.90536 -5.82847,3.05556 4.24508,2.81837 -118.39529,2.78767 -94.9218,-0.0238 -110.72035,-0.11281 -112.66181,-0.63499 z m 221.2665,-22.19192 c 0.36702,-0.44222 0.45609,-6.09434 0.34914,-22.15586 -0.16003,-24.03428 -0.0993,-23.46716 -3.20993,-29.96252 -4.24963,-8.87364 -11.59158,-14.9871 -21.25998,-17.70267 -1.15505,-0.32441 -4.93519,-0.77366 -8.40033,-0.99833 -7.42428,-0.48137 -14.03413,-1.65257 -18.75536,-3.32329 l -3.40124,-1.2036 -2.90002,2.43496 c -8.11668,6.81506 -18.55351,12.35214 -28.73491,15.24481 -13.98722,3.97395 -27.76059,4.19957 -41.55219,0.68065 -11.16879,-2.84972 -22.62206,-8.68175 -31.16468,-15.86912 l -3.02357,-2.5439 -2.43664,0.85494 c -4.2388,1.48725 -11.07646,2.86469 -16.50719,3.32535 -2.88761,0.24495 -6.64142,0.62703 -8.3418,0.84907 -13.09059,1.70945 -24.36948,12.3116 -27.17411,25.54365 -0.79695,3.75993 -0.88816,44.12885 -0.10148,44.91552 0.3894,0.3894 25.02155,0.50402 108.31281,0.50402 92.38386,0 107.87927,-0.0849 108.30148,-0.59368 z M 258.60863,320.8472 c 9.53381,-1.0266 20.80053,-5.18034 26.60476,-9.80848 l 1.19946,-0.95642 -3.05117,-3.31022 c -5.17494,-5.61431 -10.086,-13.54548 -12.6747,-20.46913 -0.85406,-2.28426 -0.99765,-2.44151 -2.02784,-2.22088 -0.60978,0.1306 -2.43174,0.52524 -4.0488,0.87699 -7.98282,1.73644 -17.0393,1.64735 -25.13568,-0.24728 -2.04315,-0.47813 -3.85702,-0.70762 -4.03081,-0.50999 -0.17379,0.19763 -0.93013,1.911 -1.68074,3.80748 -2.54816,6.43809 -7.0136,13.38636 -12.4634,19.39317 l -2.43197,2.68054 1.19904,0.95608 c 3.81002,3.03802 11.99925,6.74425 18.60387,8.41965 6.80636,1.72658 12.87404,2.14913 19.93798,1.38849 z m 2.90755,-58.07733 c 4.68685,-1.18892 8.49897,-2.85408 12.40855,-5.42014 16.95719,-11.12988 28.3842,-34.30354 29.91995,-60.67682 l 0.33631,-5.77545 -1.32378,-1.89008 c -0.72808,-1.03954 -2.23166,-2.50258 -3.34128,-3.25121 -3.95782,-2.67019 -3.42046,-2.62902 -34.31485,-2.62902 -29.92575,0 -31.2367,-0.076 -36.69663,-2.12671 -1.37751,-0.51739 -3.41766,-1.47909 -4.53365,-2.1371 -1.116,-0.65802 -2.16922,-1.1964 -2.34048,-1.1964 -0.17126,0 -0.93928,1.2758 -1.7067,2.83511 -2.94413,5.9821 -7.64945,12.50174 -14.24491,19.73758 l -3.5384,3.88196 0.29652,2.37328 c 0.43941,3.51688 2.47767,11.51914 4.21135,16.53384 7.16991,20.73912 22.40949,36.70839 38.22139,40.05149 4.7723,1.009 11.97498,0.87473 16.64661,-0.31033 z m -64.16453,-87.67212 c 3.28733,-5.10332 5.78084,-10.46803 7.85648,-16.90299 1.51553,-4.69846 1.9499,-5.56928 3.77296,-7.56401 2.72206,-2.97835 5.47928,-4.21822 9.42744,-4.23932 5.10465,-0.0273 9.22659,2.71506 11.79088,7.84452 1.36669,2.73383 2.81785,4.33098 5.00978,5.51375 1.66505,0.89847 1.95032,0.90857 31.92124,1.13048 29.56361,0.21889 30.31533,0.24469 33.55014,1.15163 1.81993,0.51025 4.74954,1.63804 6.51026,2.5062 1.76071,0.86816 3.36991,1.65043 3.57599,1.73838 0.634,0.27055 -0.16207,-5.73012 -1.42198,-10.71882 -5.12195,-20.28067 -19.90152,-35.89646 -38.57306,-40.75549 -3.02201,-0.78644 -5.56618,-1.11268 -9.94159,-1.27479 -8.69923,-0.32233 -14.41722,0.83248 -22.57498,4.55926 -2.89821,1.32401 -4.62024,1.80271 -8.15308,2.26643 -8.60706,1.12976 -14.90114,4.10878 -20.9496,9.91555 -9.23473,8.86571 -14.55645,21.7139 -15.19823,36.693 -0.23329,5.44488 0.12334,11.96727 0.65414,11.96346 0.15354,-0.001 1.38799,-1.72337 2.74321,-3.82724 z"
   id="path1155" /><path
   style="fill:#111d4a;fill-opacity:1;stroke-width:0.420016"
   d="m 417.82486,134.77908 c -2.6811,-1.03064 -5.48218,-3.67326 -6.85873,-6.47071 -1.0096,-2.05175 -1.03278,-2.33345 -1.16378,-14.14575 l -0.13367,-12.05231 -12.25682,-0.12817 -12.25681,-0.12816 -2.23983,-1.24071 c -7.4062,-4.102509 -8.7053,-13.999658 -2.5886,-19.721117 3.55869,-3.328734 3.6655,-3.350456 17.3001,-3.518188 l 12.05166,-0.14826 0.12882,-11.836807 c 0.12319,-11.320449 0.1711,-11.930229 1.09826,-13.978395 3.77221,-8.333172 14.64127,-10.058171 20.61492,-3.271742 2.81224,3.194876 2.98659,4.2127 2.98659,17.434964 v 11.661982 l 12.07547,0.12866 c 11.2396,0.119754 12.20779,0.18988 13.98689,1.01307 4.35148,2.013428 7.0644,5.841477 7.43797,10.495267 0.30881,3.847115 -0.72384,6.523619 -3.64141,9.438113 -3.62709,3.623263 -4.25533,3.753173 -18.15027,3.753173 H 434.553 l -0.12802,12.49548 c -0.147,14.34799 -0.13459,14.29436 -4.13806,17.89383 -3.52105,3.16572 -8.06902,4.0145 -12.46206,2.32578 z"
   id="path1157" /></svg>
