<?xml version="1.0" encoding="UTF-8" standalone="no"?>
<svg
   xmlns:dc="http://purl.org/dc/elements/1.1/"
   xmlns:cc="http://creativecommons.org/ns#"
   xmlns:rdf="http://www.w3.org/1999/02/22-rdf-syntax-ns#"
   xmlns:svg="http://www.w3.org/2000/svg"
   xmlns="http://www.w3.org/2000/svg"
   xmlns:sodipodi="http://sodipodi.sourceforge.net/DTD/sodipodi-0.dtd"
   xmlns:inkscape="http://www.inkscape.org/namespaces/inkscape"
   version="1.1"
   id="Layer_1"
   x="0px"
   y="0px"
   viewBox="0 0 512.001 512.001"
   style="enable-background:new 0 0 512.001 512.001;"
   xml:space="preserve"
   sodipodi:docname="icona1.svg"
   inkscape:version="1.0.2 (e86c870, 2021-01-15)"><metadata
   id="metadata170"><rdf:RDF><cc:Work
       rdf:about=""><dc:format>image/svg+xml</dc:format><dc:type
         rdf:resource="http://purl.org/dc/dcmitype/StillImage" /></cc:Work></rdf:RDF></metadata><defs
   id="defs168" /><sodipodi:namedview
   pagecolor="#ffffff"
   bordercolor="#111d4a"
   borderopacity="1"
   objecttolerance="10"
   gridtolerance="10"
   guidetolerance="10"
   inkscape:pageopacity="0"
   inkscape:pageshadow="2"
   inkscape:window-width="2560"
   inkscape:window-height="1415"
   id="namedview166"
   showgrid="false"
   inkscape:zoom="1.2753881"
   inkscape:cx="98.793455"
   inkscape:cy="256.0005"
   inkscape:window-x="0"
   inkscape:window-y="0"
   inkscape:window-maximized="1"
   inkscape:current-layer="Layer_1" />
<g
   id="g121">
	<g
   id="g119">
		<path
   d="M313.365,107.393c-9.915-11.15-25.377-17.545-42.422-17.545c-30.441,0-57.651,20.784-60.659,46.36    c-1.349,11.698,2.281,23.047,10.221,31.955c9.756,10.946,25.08,17.223,42.048,17.223c31.23,0,58.04-20.365,61.036-46.333    C324.939,127.569,321.309,116.326,313.365,107.393z M299.176,136.207c-1.537,13.335-18.31,24.6-36.625,24.6    c-9.818,0-18.678-3.363-23.699-8.998c-3.307-3.71-4.703-8.011-4.156-12.758c1.543-13.118,18.48-24.626,36.246-24.626    c9.886,0,18.879,3.477,24.058,9.299C297.274,126.281,299.846,130.518,299.176,136.207z"
   id="path117" />
	</g>
</g>
<g
   id="g127">
	<g
   id="g125">
		<path
   d="M301.752,369.483c-3.072-2.061-10.262-6.883-4.458-40.363c0.149-0.73,0.732-3.429,1.637-7.623    c2.061-9.557,5.897-27.344,10.066-47.179c0.01-0.044,0.02-0.09,0.028-0.134c4.256-21.437,0.887-40.19-9.737-54.233    c-9.591-12.678-24.776-20.45-42.754-21.882c-26.586-2.127-54.398,13.739-62.918,29.357c-3.939,6.92-2.053,12.54-0.568,15.289    c1.84,3.4,4.524,5.306,6.485,6.697c3.021,2.144,10.093,7.163,3.377,40.573c-0.628,3.056-9.999,50.701-11.238,57.465    c-0.009,0.045-0.016,0.091-0.025,0.136c-3.692,21.54-0.041,40.365,11.152,53.959c18.024,21.89,45.458,20.839,46.532,20.839    c25.569-0.001,51.128-15.882,58.91-31.079c3.757-7.021,1.727-12.589,0.167-15.298    C306.483,372.657,303.748,370.822,301.752,369.483z M284.926,269.336c-4.149,19.742-7.969,37.457-10.023,46.979    c-1.397,6.474-1.679,7.789-1.779,8.328c-0.007,0.043-0.016,0.087-0.023,0.132c-6.24,35.864,0.075,51.56,9.013,60.341    c-2.442,2.179-5.787,4.532-9.928,6.668c-8.144,4.202-17.165,6.375-24.762,5.974c-11.067-0.591-19.858-4.584-25.418-11.549    c-6.475-8.108-8.6-20.003-6.146-34.399c1.336-7.279,10.72-54.936,11.114-56.832c0.007-0.042,0.016-0.082,0.025-0.124    c7.178-35.688,1.274-51.544-7.43-60.556c2.498-2.114,5.905-4.379,10.1-6.405c8.251-3.985,17.332-5.924,24.911-5.322    c11.048,0.88,19.729,5.102,25.106,12.21C285.947,243.056,287.76,255.005,284.926,269.336z"
   id="path123" />
	</g>
</g>
<g
   id="g133">
	<g
   id="g131">
		<path
   d="M459.614,394.961c33.831-40.598,52.388-90.748,52.388-141.964c0-62.775-26.778-121.727-75.397-165.998    c-48.299-43.977-112.438-68.197-180.603-68.197S123.696,43.022,75.397,87C26.776,131.269,0,190.223,0,252.998    s26.776,121.729,75.396,165.998c48.299,43.978,112.438,68.197,180.603,68.197c42.625,0,84.634-9.73,121.869-28.187l89.22,33.412    c1.402,0.525,2.86,0.78,4.307,0.78c3.039,0,6.028-1.127,8.339-3.259c3.409-3.147,4.755-7.946,3.48-12.407L459.614,394.961z     M381.425,434.094c-3.269-1.225-6.904-1-10.001,0.616c-34.94,18.256-74.853,27.906-115.424,27.906    c-127.606,0-231.422-94.033-231.422-209.617S128.393,43.379,255.999,43.379s231.423,94.034,231.423,209.617    c0,48.095-17.515,93.34-50.652,130.846c-2.776,3.141-3.759,7.483-2.606,11.513l18.72,65.498L381.425,434.094z"
   id="path129" />
	</g>
</g>
<g
   id="g135">
</g>
<g
   id="g137">
</g>
<g
   id="g139">
</g>
<g
   id="g141">
</g>
<g
   id="g143">
</g>
<g
   id="g145">
</g>
<g
   id="g147">
</g>
<g
   id="g149">
</g>
<g
   id="g151">
</g>
<g
   id="g153">
</g>
<g
   id="g155">
</g>
<g
   id="g157">
</g>
<g
   id="g159">
</g>
<g
   id="g161">
</g>
<g
   id="g163">
</g>
<path
   style="fill:#111d4a;stroke:none;stroke-width:0.784075;fill-opacity:1"
   d="m 423.00848,475.47681 c -24.36513,-9.21882 -44.82949,-16.62403 -45.47635,-16.45602 -0.64686,0.16801 -5.71035,2.29432 -11.25221,4.72513 -52.88365,23.19623 -113.92831,29.10427 -170.28586,16.48067 C 145.63063,468.94563 102.20098,445.32482 67.038416,410.08935 22.088731,365.04647 -1.5318217,306.59144 0.6553013,245.80752 2.3459951,198.82024 18.186564,155.85692 48.210333,116.82718 57.068519,105.31189 80.434314,82.502756 93.038179,73.067306 123.00521,50.633539 155.74579,35.261822 191.70824,26.741675 c 35.04211,-8.302098 72.89828,-9.676229 108.88571,-3.952416 46.92649,7.463674 91.65234,27.677706 127.90306,57.806304 6.57228,5.462339 20.685,19.300505 27.3549,26.822717 19.7129,22.23193 35.83178,50.40982 45.07652,78.79954 20.69581,63.55486 10.68677,132.58439 -27.39885,188.96209 -4.07851,6.03737 -8.99558,12.93246 -10.92682,15.32241 l -3.51134,4.34536 12.14542,42.49173 c 6.67998,23.37045 12.13767,43.11432 12.1282,43.87525 -0.0354,2.84759 -3.08218,8.04886 -5.62174,9.59718 -5.28279,3.22084 -6.85983,2.779 -54.73482,-15.33503 z M 280.41977,461.80054 c 29.27638,-2.8979 57.39495,-10.63221 83.23233,-22.89393 9.59899,-4.55542 12.0702,-5.43028 14.31158,-5.06655 1.49005,0.2418 18.764,6.45983 38.38657,13.81785 19.62257,7.35801 35.97978,13.37821 36.34937,13.37821 0.36958,0 -3.70671,-15.26006 -9.05842,-33.91124 -7.04219,-24.54263 -9.62045,-34.64561 -9.33245,-36.5694 0.4555,-3.04264 2.24032,-5.77608 9.52765,-14.5915 17.74235,-21.46278 33.05934,-52.72315 39.0647,-79.72692 3.4438,-15.48548 4.59876,-26.41819 4.58202,-43.37286 -0.0169,-17.05015 -1.07797,-27.02119 -4.50873,-42.36676 -17.0024,-76.05047 -81.17886,-138.53656 -163.85585,-159.539966 -41.36632,-10.508772 -84.86976,-10.508772 -126.23608,0 C 132.90571,66.194072 81.832736,103.35718 51.881531,153.55642 15.718702,214.16654 14.996472,287.96936 49.967613,349.13467 c 22.068233,38.59782 55.277227,68.90228 98.222567,89.63178 25.46707,12.29282 54.02563,20.11627 85.07214,23.305 6.41363,0.65874 39.69731,0.46752 47.15745,-0.27091 z"
   id="path172" /><path
   style="fill:#111d4a;fill-opacity:1;stroke-width:0.784075"
   d="m 236.39862,420.72198 c -11.82561,-2.72623 -22.47703,-8.48777 -29.98444,-16.21911 -5.0926,-5.24451 -7.57739,-8.86891 -10.50145,-15.31778 -3.81169,-8.4065 -4.89617,-14.33719 -4.85499,-26.55038 0.0356,-10.54454 0.30261,-12.32096 6.77766,-45.08432 7.41811,-37.53516 8.76283,-46.48531 8.13323,-54.13289 -0.62042,-7.53619 -2.30571,-10.98326 -7.63667,-15.61999 -5.60943,-4.87893 -7.60069,-9.80649 -6.16314,-15.25125 3.62674,-13.73644 25.41258,-28.93358 47.3661,-33.04116 22.48121,-4.2063 46.63678,4.10514 58.87788,20.25868 8.42896,11.12298 11.65068,21.65302 11.56659,37.80487 -0.0558,10.72296 -0.21283,11.70301 -6.78225,42.34005 -3.69881,17.24965 -7.14153,34.52419 -7.65049,38.38787 -1.13275,8.59904 -0.58077,21.75364 1.07168,25.53993 0.66489,1.52347 3.39737,4.67343 6.07218,6.9999 5.36649,4.66763 7.01913,7.67883 7.01913,12.7892 0,12.58961 -20.91145,30.11668 -42.90162,35.95826 -7.88996,2.09592 -23.68968,2.68726 -30.4094,1.13812 z m 27.56784,-25.17206 c 6.95452,-2.33325 12.30525,-5.06481 16.05775,-8.19754 l 2.56011,-2.13727 -2.40654,-3.05741 c -6.31453,-8.02236 -8.89399,-17.32388 -8.87345,-31.9976 0.0189,-13.4841 1.12667,-20.63125 8.27504,-53.3877 8.29471,-38.00939 8.68119,-48.62278 2.17491,-59.72493 -7.49157,-12.78339 -26.20266,-18.13945 -44.16639,-12.64266 -5.93597,1.81638 -14.96646,6.36124 -16.91272,8.51184 -1.28062,1.41507 -1.24312,1.62295 0.76855,4.26038 5.40275,7.08338 8.26347,17.40145 8.26229,29.80052 -0.001,10.40176 -1.15727,17.92105 -8.25909,53.70914 -8.16392,41.14038 -8.51836,49.9533 -2.46972,61.40949 7.4159,14.04578 26.34893,19.70758 44.98926,13.45374 z"
   id="path997" /><path
   style="fill:#111d4a;fill-opacity:1;stroke-width:0.784075"
   d="m 249.08513,183.52826 c -36.86981,-8.06058 -50.40112,-45.13772 -26.41698,-72.38515 6.95675,-7.90328 18.14385,-14.657612 30.36202,-18.331391 5.88839,-1.770531 8.43038,-2.082663 17.47572,-2.145847 8.82898,-0.06167 11.61976,0.223053 16.82227,1.716279 21.45246,6.157282 35.743,22.687299 35.81585,41.428569 0.0494,12.70778 -4.05915,22.25712 -13.80904,32.09582 -11.87203,11.98018 -26.17566,17.98472 -44.70964,18.76873 -6.66562,0.28197 -10.19572,0.0214 -15.5402,-1.14701 z M 274.8183,159.4118 c 13.87831,-3.42401 24.67026,-14.35798 24.6907,-25.01563 0.0219,-11.42666 -12.0169,-19.98055 -28.21904,-20.05035 -11.76611,-0.0507 -21.23381,3.42572 -28.86228,10.59782 -5.25839,4.9438 -7.97107,10.36224 -7.98158,15.9428 -0.01,5.2666 0.82844,7.32867 4.67707,11.50395 7.31462,7.93543 21.04403,10.63607 35.69513,7.02141 z"
   id="path999" /></svg>
