<?xml version="1.0" encoding="UTF-8" standalone="no"?>
<svg
   xmlns:dc="http://purl.org/dc/elements/1.1/"
   xmlns:cc="http://creativecommons.org/ns#"
   xmlns:rdf="http://www.w3.org/1999/02/22-rdf-syntax-ns#"
   xmlns:svg="http://www.w3.org/2000/svg"
   xmlns="http://www.w3.org/2000/svg"
   xmlns:sodipodi="http://sodipodi.sourceforge.net/DTD/sodipodi-0.dtd"
   xmlns:inkscape="http://www.inkscape.org/namespaces/inkscape"
   version="1.1"
   id="Layer_1"
   x="0px"
   y="0px"
   viewBox="0 0 512 512"
   style="enable-background:new 0 0 512 512;"
   xml:space="preserve"
   sodipodi:docname="placeholder.svg"
   inkscape:version="1.0.2 (e86c870, 2021-01-15)"><metadata
   id="metadata5609"><rdf:RDF><cc:Work
       rdf:about=""><dc:format>image/svg+xml</dc:format><dc:type
         rdf:resource="http://purl.org/dc/dcmitype/StillImage" /><dc:title></dc:title></cc:Work></rdf:RDF></metadata><defs
   id="defs5607" /><sodipodi:namedview
   pagecolor="#ffffff"
   bordercolor="#111d4a"
   borderopacity="1"
   objecttolerance="10"
   gridtolerance="10"
   guidetolerance="10"
   inkscape:pageopacity="0"
   inkscape:pageshadow="2"
   inkscape:window-width="2560"
   inkscape:window-height="1415"
   id="namedview5605"
   showgrid="false"
   inkscape:zoom="1.3222656"
   inkscape:cx="258.26884"
   inkscape:cy="256"
   inkscape:window-x="0"
   inkscape:window-y="0"
   inkscape:window-maximized="1"
   inkscape:current-layer="Layer_1"
   inkscape:document-rotation="0" />


<g
   id="g5574">
</g>
<g
   id="g5576">
</g>
<g
   id="g5578">
</g>
<g
   id="g5580">
</g>
<g
   id="g5582">
</g>
<g
   id="g5584">
</g>
<g
   id="g5586">
</g>
<g
   id="g5588">
</g>
<g
   id="g5590">
</g>
<g
   id="g5592">
</g>
<g
   id="g5594">
</g>
<g
   id="g5596">
</g>
<g
   id="g5598">
</g>
<g
   id="g5600">
</g>
<g
   id="g5602">
</g>
<g
   id="g6981"
   transform="matrix(0.5,0,0,0.5,125.055,128)"><g
     id="g5566">
	<g
   id="g5564">
		<path
   d="m 256.001,276.673 c -28.017,0 -50.81,22.793 -50.81,50.81 0,13.895 5.775,27.33 15.858,36.891 v 45.875 c 0,19.273 15.68,34.953 34.953,34.953 19.273,0 34.953,-15.68 34.953,-34.953 v -45.875 c 10.078,-9.555 15.857,-22.993 15.857,-36.891 -0.002,-28.017 -22.796,-50.81 -50.811,-50.81 z m 17.978,69.885 c -4.851,4.571 -7.633,10.96 -7.633,17.53 v 46.161 c 0,5.705 -4.64,10.345 -10.345,10.345 -5.704,0 -10.345,-4.64 -10.345,-10.345 v -46.161 c 0,-6.569 -2.782,-12.957 -7.63,-17.527 -5.307,-5.003 -8.229,-11.778 -8.229,-19.078 0,-14.447 11.755,-26.202 26.202,-26.202 14.447,0 26.202,11.755 26.202,26.202 0.002,7.3 -2.92,14.075 -8.222,19.075 z"
   id="path5562" />
	</g>
</g><g
     id="g5572">
	<g
   id="g5570">
		<path
   d="M 404.979,209.876 H 368.071 V 112.072 C 368.071,50.275 317.795,0 256.001,0 194.205,0 143.93,50.275 143.93,112.072 v 97.804 h -36.909 c -20.353,0 -36.911,16.559 -36.911,36.911 v 228.301 c 0,20.353 16.558,36.911 36.911,36.911 h 297.958 c 20.353,0 36.911,-16.558 36.911,-36.911 v -228.3 c 0,-20.353 -16.558,-36.912 -36.911,-36.912 z M 168.536,112.072 c 0,-48.227 39.236,-87.464 87.464,-87.464 48.227,0 87.463,39.237 87.463,87.464 v 97.804 H 168.536 Z m 248.747,363.017 v 0 c 0,6.784 -5.52,12.304 -12.304,12.304 H 107.021 c -6.784,0 -12.304,-5.519 -12.304,-12.304 V 246.788 c 0,-6.784 5.52,-12.304 12.304,-12.304 h 297.958 c 6.784,0 12.304,5.519 12.304,12.304 z"
   id="path5568" />
	</g>
</g><path
     style="opacity:0.75;fill:#111d4a;stroke-width:0.756278"
     d="m 102.85374,511.24713 c -14.065902,-1.74588 -26.47047,-12.05276 -30.601136,-25.42631 -1.522647,-4.92974 -1.540535,-6.38479 -1.531663,-124.58917 0.0074,-98.69505 0.189607,-120.27955 1.042343,-123.48208 2.515379,-9.44676 10.216467,-19.09077 18.662226,-23.37056 7.006322,-3.55038 11.5481,-4.11076 33.41491,-4.12284 l 20.23041,-0.0112 V 160.0839 c 0,-30.80357 0.31954,-53.34916 0.82802,-58.42239 4.91279,-49.016023 41.11064,-89.21261 89.16894,-99.0193472 12.89001,-2.63032577 31.4849,-2.63210271 44.12227,-0.00422 47.92541,9.9658862 84.01303,50.1581732 88.91073,99.0235672 0.50848,5.07323 0.82802,27.61882 0.82802,58.42239 v 50.16107 h 20.08111 c 22.90592,0 27.64907,0.68092 34.86746,5.00552 8.71982,5.2241 14.43546,12.61387 17.22015,22.264 1.09423,3.79194 1.19325,16.03472 1.01244,125.16382 l -0.20043,120.96079 -1.77697,4.40472 c -3.91884,9.71399 -12.52442,17.89937 -22.88654,21.76898 l -4.83129,1.8042 -152.01168,0.0967 c -83.60641,0.0532 -154.05361,-0.15678 -156.54932,-0.46655 z M 410.60876,486.2973 c 1.69113,-0.82573 3.92561,-2.7576 4.96549,-4.29305 l 1.8907,-2.79172 0.19837,-117.2884 0.19838,-117.28842 -1.71094,-3.3872 c -0.941,-1.86295 -2.86731,-4.15567 -4.28066,-5.09493 l -2.56974,-1.70772 H 255.99982 102.69928 l -2.56974,1.70772 c -1.41336,0.93926 -3.335474,3.22348 -4.271367,5.07605 l -1.701623,3.36832 0.0042,115.7392 c 0.0027,75.38941 0.269812,116.69536 0.766047,118.48188 0.875028,3.1502 3.88116,6.47068 7.170653,7.92045 1.85572,0.81788 29.86905,1.00534 153.85264,1.02955 149.70031,0.0292 151.62203,0.011 154.65864,-1.47173 z M 343.7249,157.49468 c -0.003,-57.12233 -0.17644,-60.12384 -4.17841,-72.430652 -8.05203,-24.761441 -26.7842,-44.859675 -50.74483,-54.445435 -11.32872,-4.532201 -18.52519,-5.865737 -32.04556,-5.938174 -13.06387,-0.06999 -16.66251,0.430612 -27.60412,3.839985 -30.86045,9.616028 -54.51001,36.981451 -59.71928,69.102488 -0.95638,5.897188 -1.15545,16.189998 -1.15797,59.871788 l -0.003,52.75031 h 87.72809 87.72812 l -0.003,-52.75031 z"
     id="path6172" /><path
     style="opacity:0.75;fill:#111d4a;stroke-width:0.756278"
     d="m 246.943,443.4789 c -12.10764,-3.25362 -22.6365,-14.82115 -24.97641,-27.44032 -0.41545,-2.24053 -0.76401,-14.83255 -0.77457,-27.98228 l -0.0192,-23.90859 -3.80302,-4.53767 c -7.52244,-8.97559 -11.55996,-20.20167 -11.55996,-32.1418 0,-8.53305 1.48849,-14.89656 5.23259,-22.37014 8.60475,-17.17588 25.80584,-27.82002 44.95757,-27.82002 19.13082,0 36.35192,10.64481 44.93494,27.77543 3.76635,7.51717 5.25522,13.86755 5.25522,22.41473 0,11.90458 -3.91037,22.77117 -11.62539,32.30605 l -3.776,4.66669 v 23.76196 c 0,13.06907 -0.34737,25.59364 -0.77194,27.83236 -1.79936,9.48806 -8.79865,19.42565 -16.97801,24.1054 -7.63283,4.36707 -17.54745,5.63536 -26.09582,3.3382 z m 14.90762,-24.2256 c 4.30782,-2.68186 4.32765,-2.81897 4.73727,-32.75985 l 0.37814,-27.63968 1.97816,-4.15953 c 1.08799,-2.28774 3.78192,-6.20067 5.98652,-8.69539 5.94404,-6.72631 7.15974,-9.87273 7.15974,-18.53061 0,-5.78498 -0.32097,-7.87964 -1.64757,-10.75217 -2.30978,-5.00143 -7.98769,-10.78671 -13.00453,-13.25044 -3.73861,-1.836 -5.12374,-2.08897 -11.43835,-2.08897 -6.31461,0 -7.69974,0.25297 -11.43835,2.08897 -5.01684,2.46373 -10.69475,8.24901 -13.00453,13.25044 -1.3266,2.87253 -1.64757,4.96719 -1.64757,10.75217 0,8.65788 1.2157,11.8043 7.15974,18.53061 2.2046,2.49472 4.89853,6.40765 5.98652,8.69539 l 1.97816,4.15953 0.37814,27.60413 c 0.25864,18.88027 0.65477,28.08484 1.25344,29.12516 2.93542,5.10092 10.1039,6.83356 15.18507,3.67024 z"
     id="path6174" /></g><rect
   style="opacity:0.75;fill:#000000;fill-opacity:0"
   id="rect6999"
   width="509.12021"
   height="504.4425"
   x="4.3791084"
   y="2.5603998"
   sodipodi:insensitive="true" /></svg>
